<svg width="400" height="400" viewBox="0 0 400 400" fill="none" xmlns="http://www.w3.org/2000/svg">
<path d="M247.98 180.77C248.03 180.48 248.05 180.17 248.09 179.87C247.99 180.16 247.95 180.47 247.98 180.77Z" fill="#398BAB"/>
<path d="M202.63 264.4C202.19 265.19 201.33 265.62 200.43 265.52C197.16 265.13 193.84 264.91 190.47 264.91C187.1 264.91 183.77 265.13 180.51 265.52C179.61 265.63 178.76 265.19 178.31 264.4C166.56 243.46 147.14 227.4 123.84 220.07C122.49 219.65 121.86 218.14 122.52 216.88C128.25 205.92 131.89 193.71 132.97 180.77C133 180.47 132.96 180.16 132.86 179.87C130.86 173.91 129.76 167.54 129.76 160.9C129.76 157.35 130.08 153.87 130.68 150.49C130.68 150.47 130.67 150.46 130.67 150.44L130.68 150.45C131.27 147.15 132.15 143.95 133.25 140.86C131.38 144.73 129.35 148.99 128.66 152.86C128.66 152.86 128.65 152.85 128.64 152.85C128.64 152.87 128.65 152.88 128.65 152.9C128.01 156.52 127.67 160.24 127.67 164.05C127.67 171.16 128.39 175.09 128.74 182.12C128.76 182.45 128.89 182.76 128.86 183.08C127.71 196.94 121.56 210.02 115.42 221.76C114.72 223.1 115.39 224.72 116.83 225.18C141.79 233.04 162.59 250.24 175.18 272.67C175.65 273.51 176.57 273.98 177.53 273.87C181.03 273.45 184.59 273.22 188.2 273.22C191.81 273.22 199.86 273.45 203.36 273.87C204.32 273.98 205.24 273.52 205.71 272.67C217.93 250.9 233.67 234.08 257.41 225.93C247.1 226.97 236.84 230.05 227.71 235.41C217.54 243.26 208.97 253.11 202.63 264.4Z" fill="#398BAB"/>
<path d="M247.98 180.77C248.03 180.48 248.05 180.17 248.09 179.87C247.99 180.16 247.95 180.47 247.98 180.77Z" fill="#398BAB"/>
<path d="M173.22 220.94C173.72 221.73 173.18 222.78 172.24 222.83C169.37 222.99 163.79 222.86 158.66 220.2C153.53 217.54 150.2 213.07 148.67 210.63C148.17 209.84 148.71 208.79 149.65 208.74C152.52 208.58 158.1 208.71 163.23 211.37C168.36 214.03 171.7 218.51 173.22 220.94Z" fill="#398BAB"/>
<path d="M209.3 220.94C208.8 221.73 209.34 222.78 210.28 222.83C213.15 222.99 218.73 222.86 223.86 220.2C228.99 217.54 232.32 213.07 233.85 210.63C234.35 209.84 233.81 208.79 232.87 208.74C230 208.58 224.42 208.71 219.29 211.37C214.16 214.03 210.83 218.51 209.3 220.94Z" fill="#398BAB"/>
<path d="M198.93 252.03C199.24 253.38 199.2 254.87 198.66 256.42C197.78 258.93 195.6 260.86 193 261.42C187.9 262.51 183.41 258.65 183.41 253.75C183.41 253.15 183.48 252.58 183.61 252.02C183.81 251.17 184.67 250.65 185.53 250.76C187.38 251 189.3 251.13 191.27 251.13C193.24 251.13 195.15 251 197 250.76C197.87 250.65 198.73 251.17 198.93 252.03Z" fill="#398BAB"/>
<path d="M366.04 316.61C353.62 313.43 333.06 304.55 331.49 280.45C331.47 280.08 331.41 279.72 331.39 279.35C331.3 278.11 331.15 276.87 330.97 275.65C330.9 275.22 330.8 274.79 330.72 274.36C330.58 273.58 330.44 272.79 330.26 272.02C330.14 271.5 329.98 270.99 329.85 270.48C329.67 269.81 329.5 269.14 329.29 268.48C329.11 267.92 328.91 267.37 328.71 266.82C328.5 266.22 328.29 265.62 328.06 265.03C327.83 264.45 327.57 263.87 327.32 263.3C327.08 262.76 326.85 262.21 326.59 261.67C326.3 261.07 325.99 260.48 325.68 259.89C325.42 259.4 325.17 258.9 324.89 258.42C324.54 257.81 324.17 257.2 323.8 256.6C323.53 256.16 323.26 255.72 322.98 255.29C322.57 254.66 322.14 254.05 321.7 253.44C321.42 253.05 321.15 252.66 320.86 252.28C320.39 251.65 319.89 251.02 319.39 250.41C319.11 250.07 318.84 249.73 318.55 249.4C318.01 248.76 317.45 248.13 316.88 247.51C316.61 247.22 316.34 246.93 316.07 246.65C315.46 246.01 314.83 245.37 314.18 244.75C313.93 244.51 313.68 244.27 313.43 244.04C312.74 243.4 312.04 242.76 311.32 242.15C311.09 241.96 310.87 241.77 310.64 241.58C309.88 240.94 309.1 240.31 308.31 239.7C308.12 239.55 307.92 239.41 307.73 239.27C306.88 238.64 306.03 238.01 305.15 237.42C305 237.32 304.85 237.22 304.71 237.13C303.78 236.5 302.83 235.89 301.86 235.31C301.77 235.26 301.68 235.21 301.59 235.15C300.56 234.53 299.51 233.93 298.44 233.36C286.79 227.14 272.08 224.5 257.45 225.98C233.71 234.14 217.97 250.95 205.75 272.72C205.28 273.56 204.36 274.03 203.4 273.92C199.9 273.5 191.85 273.27 188.24 273.27C184.63 273.27 181.07 273.5 177.57 273.92C176.61 274.03 175.69 273.57 175.22 272.72C162.63 250.29 141.83 233.09 116.87 225.23C115.42 224.77 114.75 223.16 115.46 221.81C121.6 210.07 127.75 196.99 128.9 183.13C128.93 182.81 128.8 182.49 128.78 182.17C128.42 175.14 127.71 171.2 127.71 164.1C127.71 160.3 128.05 156.57 128.69 152.95C128.69 152.93 128.68 152.92 128.68 152.9C128.68 152.9 128.69 152.91 128.7 152.91C129.39 149.04 131.42 144.78 133.29 140.91C133.83 139.41 134.4 137.93 135.05 136.49C135.61 135.25 137.19 134.81 138.32 135.57C149.58 143.26 158.07 154.71 161.96 168.12C162.17 168.84 162.7 169.41 163.41 169.65C172.13 172.49 181.43 174.04 191.1 174.04C200.28 174.04 209.13 172.64 217.47 170.06C218.2 169.83 218.75 169.24 218.95 168.51C222.79 154.94 231.33 143.34 242.7 135.57C243.82 134.8 245.4 135.25 245.96 136.49C249.33 143.95 251.22 152.23 251.22 160.95C251.22 167.58 250.13 173.96 248.12 179.91C248.08 180.21 248.06 180.52 248.01 180.81C248.97 192.35 251.98 203.3 256.68 213.3C272.55 212.75 286.98 215.93 298.59 221.3C299.93 221.92 301.53 221.16 301.79 219.7C302.95 213.25 303.56 206.61 303.56 199.83C303.56 136.38 250.92 85.22 186.92 87.65C128.73 89.86 81.32 137.27 79.11 195.46C76.68 259.45 127.84 312.1 191.29 312.1C211.4 312.1 230.26 306.79 246.59 297.52C301.74 276.76 276.33 342.94 366.02 320.85C368.17 320.27 368.22 317.16 366.04 316.61ZM357.48 319.55C339.3 324.03 327.63 323.52 319.37 320.78C317.36 320.11 317.27 317.24 319.29 316.57C325.48 314.49 330.4 309.65 332.58 303.51C333.21 301.75 335.52 301.42 336.54 302.99C341.87 311.16 351.14 314.87 357.5 316.5C359.15 316.91 359.13 319.14 357.48 319.55Z" fill="#4EA9CC"/>
</svg>
